<?xml version="1.0" standalone="no"?>
<!DOCTYPE svg PUBLIC "-//W3C//DTD SVG 20010904//EN"
 "http://www.w3.org/TR/2001/REC-SVG-20010904/DTD/svg10.dtd">
<svg version="1.0" xmlns="http://www.w3.org/2000/svg"
 width="828.000000pt" height="828.000000pt" viewBox="0 0 828.000000 828.000000"
 preserveAspectRatio="xMidYMid meet">
<metadata>
Created by potrace 1.14, written by Peter Selinger 2001-2017
</metadata>
<g transform="translate(0.000000,828.000000) scale(0.100000,-0.100000)"
fill="#000000" stroke="none">
<path d="M3929 7606 c-2 -2 -42 -6 -89 -10 -80 -6 -103 -9 -190 -21 -117 -16
-227 -38 -340 -66 -492 -122 -945 -346 -1345 -666 -110 -88 -386 -355 -463
-448 -305 -369 -501 -713 -649 -1140 -30 -85 -24 -67 -73 -254 -35 -131 -53
-226 -84 -431 -14 -93 -21 -224 -21 -425 0 -270 8 -373 51 -630 20 -123 83
-365 126 -485 11 -30 21 -59 23 -65 1 -5 6 -19 10 -30 5 -11 17 -42 27 -70 43
-112 160 -355 217 -450 17 -27 34 -57 38 -65 22 -48 232 -346 283 -402 8 -9
35 -41 60 -72 74 -91 337 -345 455 -439 239 -192 551 -381 795 -482 36 -15 79
-33 95 -41 104 -48 492 -160 640 -184 33 -6 74 -12 90 -15 76 -13 93 -15 140
-20 178 -19 255 -23 465 -20 129 2 251 6 270 9 19 2 60 7 90 10 30 3 64 8 75
10 11 2 43 7 70 10 28 4 57 9 65 11 8 2 31 7 50 10 183 30 476 121 705 219
268 115 612 322 798 481 7 6 39 32 72 60 167 138 381 366 524 555 39 52 74
100 79 105 13 18 129 199 156 245 15 25 64 122 110 215 191 386 301 780 343
1220 10 106 10 507 0 615 -29 316 -100 623 -214 925 -53 140 -171 390 -231
489 -23 37 -42 70 -42 72 0 15 -231 343 -275 390 -5 6 -28 33 -50 60 -75 93
-360 370 -470 458 -338 269 -720 475 -1125 604 -91 29 -261 74 -325 87 -110
21 -261 45 -316 50 -35 4 -75 9 -89 12 -28 5 -525 14 -531 9z m436 -530 c84
-7 143 -14 185 -21 14 -2 42 -7 63 -10 287 -41 620 -153 910 -308 108 -57 316
-185 337 -207 3 -3 37 -29 75 -58 131 -100 330 -286 426 -398 99 -116 250
-325 303 -419 9 -16 26 -46 38 -65 35 -59 134 -262 153 -315 10 -27 22 -54 26
-60 12 -16 91 -257 105 -320 1 -5 9 -37 17 -70 14 -51 42 -209 61 -335 8 -49
19 -261 20 -345 0 -82 -12 -299 -19 -335 -2 -14 -7 -45 -10 -70 -8 -70 -13
-101 -25 -160 -6 -30 -14 -66 -16 -80 -50 -259 -197 -624 -356 -885 -157 -259
-380 -521 -598 -705 -35 -30 -70 -59 -76 -65 -242 -208 -697 -445 -1019 -531
-70 -19 -258 -64 -285 -68 -19 -3 -44 -7 -55 -10 -20 -4 -113 -17 -150 -22
-183 -21 -562 -21 -670 1 -11 2 -42 7 -70 10 -175 21 -357 65 -570 138 -119
40 -153 55 -330 142 -216 107 -276 144 -460 281 -136 102 -182 142 -310 269
-359 356 -620 797 -754 1272 -18 62 -34 121 -36 130 -51 254 -60 314 -71 483
-11 167 -6 448 10 536 2 10 7 42 10 69 4 28 10 66 12 85 22 151 121 497 180
626 13 29 24 56 24 60 0 4 25 57 56 118 222 440 458 726 877 1062 35 28 257
174 274 181 10 4 20 10 23 14 9 13 284 147 377 183 212 82 446 147 618 171 22
3 51 7 65 10 42 8 92 13 201 20 57 4 105 8 106 9 4 4 257 -3 328 -8z"/>
<path d="M3959 6526 c-2 -2 -33 -6 -69 -9 -56 -5 -116 -14 -217 -32 -57 -10
-235 -59 -322 -90 -486 -169 -903 -491 -1192 -920 -168 -250 -312 -585 -354
-826 -3 -18 -7 -35 -9 -38 -2 -3 -7 -26 -10 -51 -3 -25 -8 -54 -10 -65 -26
-134 -28 -536 -3 -690 21 -128 25 -147 43 -225 20 -82 71 -249 84 -272 6 -10
10 -22 10 -28 0 -10 32 -84 81 -185 160 -331 416 -643 709 -861 47 -35 90 -67
95 -71 33 -26 195 -119 280 -162 257 -128 535 -209 815 -238 98 -10 426 -10
515 0 39 5 106 15 150 24 44 8 91 17 105 20 14 2 63 15 110 29 47 13 93 26
102 29 98 23 437 177 489 221 8 8 19 14 22 14 4 0 35 19 70 42 461 311 789
740 960 1259 28 85 73 262 82 324 3 23 7 50 9 61 27 141 28 532 2 694 -3 23
-23 130 -31 175 -2 11 -11 47 -20 80 -8 33 -17 68 -20 77 -10 45 -79 229 -112
302 -260 578 -732 1025 -1324 1256 -158 61 -377 119 -519 135 -30 4 -66 9 -80
12 -28 6 -436 14 -441 9z"/>
</g>
</svg>
